<?xml version="1.0" encoding="UTF-8" standalone="no"?>
<svg
   width="512"
   height="512"
   viewBox="0 0 512 512"
   role="img"
   aria-labelledby="title desc"
   version="1.1"
   id="svg14"
   sodipodi:docname="app-icon-ascii-ink.svg"
   inkscape:version="1.4.4 (dcaf3e7, 2026-05-05)"
   xmlns:inkscape="http://www.inkscape.org/namespaces/inkscape"
   xmlns:sodipodi="http://sodipodi.sourceforge.net/DTD/sodipodi-0.dtd"
   xmlns="http://www.w3.org/2000/svg"
   xmlns:svg="http://www.w3.org/2000/svg"
   xmlns:rdf="http://www.w3.org/1999/02/22-rdf-syntax-ns#"
   xmlns:cc="http://creativecommons.org/ns#"
   xmlns:dc="http://purl.org/dc/elements/1.1/">
  <defs
     id="defs14" />
  <sodipodi:namedview
     id="namedview14"
     pagecolor="#ffffff"
     bordercolor="#000000"
     borderopacity="0.25"
     inkscape:showpageshadow="2"
     inkscape:pageopacity="0.0"
     inkscape:pagecheckerboard="0"
     inkscape:deskcolor="#d1d1d1"
     inkscape:zoom="0.17157747"
     inkscape:cx="311.8125"
     inkscape:cy="390.49415"
     inkscape:window-width="2056"
     inkscape:window-height="1261"
     inkscape:window-x="0"
     inkscape:window-y="40"
     inkscape:window-maximized="0"
     inkscape:current-layer="g14" />
  <title
     id="title1">Reefs ASCII app icon</title>
  <desc
     id="desc1">A monospace ASCII-art reef icon using waves, swimmer marks, an at sign, and a reef floor.</desc>
  <g
     transform="scale(0.5)"
     id="g14">
    <rect
       x="48"
       y="48"
       width="928"
       height="928"
       rx="190"
       ry="190"
       style="fill:#071f2f;stroke:none"
       id="rect1" />
    <g
       font-family="Meslo LG S DZ, ui-monospace, SFMono-Regular, Menlo, Monaco, Consolas, Liberation Mono, Courier New, monospace"
       font-size="230"
       font-weight="800"
       text-anchor="middle"
       dominant-baseline="middle"
       transform="translate(0 40)"
       id="g13">
      <g
         id="text5"
         style="letter-spacing:6"
         aria-label="~~~~~"
         transform="translate(-5.1177749,-66.531073)">
        <path
           style="fill:#1f7fd1"
           d="m 289.70947,208.90332 q -10.21972,23.35938 -19.65332,31.55762 -9.77051,8.19824 -20.10254,8.19824 -16.17187,-0.89844 -28.97461,-16.50879 L 203.79639,210.9248 q -4.26758,-5.50293 -11.11817,-5.27832 -7.07519,0 -10.89355,6.85059 -3.93067,7.0752 -9.77051,22.01172 L 153.8208,224.06445 q 3.48145,-11.11816 7.86133,-19.09179 4.37988,-7.97364 9.43359,-13.02735 10.44434,-10.10742 21.67481,-10.10742 9.77051,-0.1123 18.30566,5.50293 8.64746,5.50293 16.28418,17.07031 13.81348,21.00098 22.68555,21.00098 7.2998,0 12.1289,-8.31055 2.3584,-4.26758 4.82911,-9.43359 2.4707,-5.16602 4.71679,-10.78125 z"
           id="path14" />
        <path
           style="fill:#86d6ff"
           d="m 434.18115,208.90332 q -10.21972,23.35938 -19.65332,31.55762 -9.77051,8.19824 -20.10254,8.19824 -16.17187,-0.89844 -28.97461,-16.50879 L 348.26807,210.9248 q -4.26758,-5.50293 -11.11817,-5.27832 -7.07519,0 -10.89355,6.85059 -3.93067,7.0752 -9.77051,22.01172 l -18.19336,-10.44434 q 3.48145,-11.11816 7.86133,-19.09179 4.37988,-7.97364 9.43359,-13.02735 10.44434,-10.10742 21.67481,-10.10742 9.7705,-0.1123 18.30566,5.50293 8.64746,5.50293 16.28418,17.07031 13.81348,21.00098 22.68555,21.00098 7.2998,0 12.1289,-8.31055 2.3584,-4.26758 4.82911,-9.43359 2.4707,-5.16602 4.71679,-10.78125 z"
           id="path15" />
        <path
           style="fill:#1f7fd1"
           d="m 578.65283,208.90332 q -10.21972,23.35938 -19.65332,31.55762 -9.77051,8.19824 -20.10254,8.19824 -16.17187,-0.89844 -28.97461,-16.50879 L 492.73975,210.9248 q -4.26758,-5.50293 -11.11817,-5.27832 -7.07519,0 -10.89355,6.85059 -3.93067,7.0752 -9.77051,22.01172 l -18.19336,-10.44434 q 3.48145,-11.11816 7.86133,-19.09179 4.37988,-7.97364 9.43359,-13.02735 10.44434,-10.10742 21.67481,-10.10742 9.7705,-0.1123 18.30566,5.50293 8.64746,5.50293 16.28418,17.07031 13.81348,21.00098 22.68555,21.00098 7.2998,0 12.1289,-8.31055 2.3584,-4.26758 4.82911,-9.43359 2.4707,-5.16602 4.71679,-10.78125 z"
           id="path16" />
        <path
           style="fill:#86d6ff"
           d="m 723.12451,208.90332 q -10.21972,23.35938 -19.65332,31.55762 -9.77051,8.19824 -20.10254,8.19824 -16.17187,-0.89844 -28.97461,-16.50879 L 637.21143,210.9248 q -4.26758,-5.50293 -11.11817,-5.27832 -7.07519,0 -10.89355,6.85059 -3.93067,7.0752 -9.77051,22.01172 l -18.19336,-10.44434 q 3.48145,-11.11816 7.86133,-19.09179 4.37988,-7.97364 9.43359,-13.02735 10.44434,-10.10742 21.67481,-10.10742 9.7705,-0.1123 18.30566,5.50293 8.64746,5.50293 16.28418,17.07031 13.81348,21.00098 22.68555,21.00098 7.2998,0 12.1289,-8.31055 2.3584,-4.26758 4.8291,-9.43359 2.47071,-5.16602 4.7168,-10.78125 z"
           id="path17" />
        <path
           style="fill:#1f7fd1"
           d="m 867.59619,208.90332 q -10.21973,23.35938 -19.65332,31.55762 -9.77051,8.19824 -20.10254,8.19824 -16.17187,-0.89844 -28.97461,-16.50879 L 781.68311,210.9248 q -4.26758,-5.50293 -11.11817,-5.27832 -7.07519,0 -10.89355,6.85059 -3.93067,7.0752 -9.77051,22.01172 l -18.19336,-10.44434 q 3.48144,-11.11816 7.86133,-19.09179 4.37988,-7.97364 9.43359,-13.02735 10.44434,-10.10742 21.67481,-10.10742 9.7705,-0.1123 18.30566,5.50293 8.64746,5.50293 16.28418,17.07031 13.81348,21.00098 22.68555,21.00098 7.2998,0 12.1289,-8.31055 2.3584,-4.26758 4.8291,-9.43359 2.47071,-5.16602 4.7168,-10.78125 z"
           id="path18" />
      </g>
      <g
         id="text8"
         style="letter-spacing:-26"
         aria-label="/'-"
         transform="matrix(1.1258327,0,0,1.1258327,-96.548887,-89.179597)">
        <path
           style="fill:#ffd84a"
           d="m 492.81411,303.11387 h 24.81934 l -88.27149,189.00879 h -24.81933 z"
           id="path19" />
        <path
           style="font-size:275px;fill:#b98028"
           d="m 596.98608,277.71924 v 74.52392 h -34.375 v -74.52392 z"
           id="path20" />
        <path
           style="fill:#ffd84a"
           d="m 626.91948,396.58203 h 119.04297 v 30.20996 H 626.91948 Z"
           id="path21" />
      </g>
      <path
         d="m 451.77285,623.47487 q 0,-14.2873 -6.44826,-22.37922 -6.44825,-8.09193 -17.70107,-8.09193 -11.25283,0 -17.70108,8.09193 -6.32181,8.09192 -6.32181,22.37922 0,14.41373 6.32181,22.50565 6.44825,8.09193 17.70108,8.09193 11.25282,0 17.70107,-8.09193 6.44826,-8.09192 6.44826,-22.50565 z m 23.51714,51.83887 h -24.78151 v -10.36777 q -4.80457,6.70113 -11.37926,9.86203 -6.44826,3.03448 -15.55166,3.03448 -20.73555,0 -33.50562,-14.91949 -12.64363,-14.91948 -12.64363,-39.44812 0,-24.4022 12.64363,-39.19525 12.64363,-14.91948 33.50562,-14.91948 8.97697,0 15.80453,3.16091 6.82756,3.03446 11.12639,8.97697 v -5.18389 q 0,-17.19533 -9.48272,-26.55161 -9.35628,-9.35629 -26.80449,-9.35629 -26.29875,0 -42.98833,23.13784 -16.56316,23.13785 -16.56316,60.18367 0,38.81594 19.21831,61.82734 19.21833,22.88497 51.2067,22.88497 10.11491,0 19.59763,-3.03446 9.48272,-2.90804 18.20682,-8.85055 l 11.63213,22.25278 q -10.24132,6.954 -22.37921,10.36779 -12.01145,3.54021 -25.793,3.54021 -44.2527,0 -70.55146,-29.45965 -26.29874,-29.45965 -26.29874,-79.52843 0,-48.93083 23.64358,-78.26406 23.64359,-29.45965 62.58597,-29.45965 27.56311,0 43.49408,16.68958 16.0574,16.56316 16.0574,45.26419 z"
         id="text9"
         style="fill:#ffd84a;stroke-width:1.12583"
         aria-label="@" />
      <g
         id="text13"
         style="letter-spacing:2"
         aria-label="-.-.-">
        <path
           style="fill:#49a35a"
           d="m 173.27588,811.58203 h 119.04297 v 30.20996 H 173.27588 Z"
           id="path22" />
        <path
           style="fill:#14512b"
           d="m 352.71729,851.6748 h 37.50976 v 41.21582 h -37.50976 z"
           id="path23" />
        <path
           style="fill:#49a35a"
           d="m 454.21924,811.58203 h 119.04297 v 30.20996 H 454.21924 Z"
           id="path24" />
        <path
           style="fill:#14512b"
           d="m 633.66064,851.6748 h 37.50977 v 41.21582 h -37.50977 z"
           id="path25" />
        <path
           style="fill:#49a35a"
           d="m 735.1626,811.58203 h 119.04297 v 30.20996 H 735.1626 Z"
           id="path26" />
      </g>
    </g>
  </g>
  <metadata
     id="metadata26">
    <rdf:RDF>
      <cc:Work
         rdf:about="">
        <dc:title>Reefs ASCII app icon</dc:title>
      </cc:Work>
    </rdf:RDF>
  </metadata>
</svg>
